# xmcd
#
# Track frame offsets: 
#        150
#        20690
#        37923
#        56838
#        74120
#        96905
#        115128
#        133560
#        151500
#        173258
#
# Disc length: 2561 seconds
#
# Revision: 2
# Processed by: cddbd v1.5.1PL0 Copyright (c) Steve Scherf et al.
# Submitted via: ExactAudioCopy v0.95a5
#
DISCID=7c09ff0a
DTITLE=Lighthouse Family - Ocean Drive
DYEAR=1995
DGENRE=
TTITLE0=Lifted
TTITLE1=Heavenly
TTITLE2=Loving Every Minute
TTITLE3=Ocean Drive
TTITLE4=The Way You Are
TTITLE5=Keep remembering
TTITLE6=Seetheart Operator
TTITLE7=What could be better
TTITLE8=Beautiful Light
TTITLE9=Goodbye Heartbreak
EXTD=
EXTT0=
EXTT1=
EXTT2=
EXTT3=
EXTT4=
EXTT5=
EXTT6=
EXTT7=
EXTT8=
EXTT9=
PLAYORDER=
